<svg xmlns="http://www.w3.org/2000/svg" width="805" height="800" viewBox="0 0 805 800">
    <defs>
        <filter id="b" width="108.9%" height="109%" x="-3%" y="-3.2%" filterUnits="objectBoundingBox">
            <feOffset dx="12" dy="10" in="SourceAlpha" result="shadowOffsetOuter1"/>
            <feGaussianBlur in="shadowOffsetOuter1" result="shadowBlurOuter1" stdDeviation="10"/>
            <feColorMatrix in="shadowBlurOuter1" result="shadowMatrixOuter1" values="0 0 0 0 0.117647059 0 0 0 0 0.698039216 0 0 0 0 0.890196078 0 0 0 0.4 0"/>
            <feMerge>
                <feMergeNode in="shadowMatrixOuter1"/>
                <feMergeNode in="SourceGraphic"/>
            </feMerge>
        </filter>
        <linearGradient id="a" x1="0%" y1="0%" y2="100%">
            <stop offset="0%" stop-color="#2ACBF1"/>
            <stop offset="100%" stop-color="#25C1EC"/>
        </linearGradient>
    </defs>
    <path fill="url(#a)" fill-rule="nonzero" d="M761.83 283.328c14.149 13.605 14.954 35.158 1.857 49.671l-174.533 175.31c-15.16 12.091-37.52 11.503-51.944-1.367-14.423-12.87-16.307-33.916-4.377-48.889l149.158-150.182-149.158-149.597c-9.672-14.667-7.24-33.712 5.848-45.788 13.087-12.076 33.308-13.934 48.616-4.467l174.533 175.31zM345.713 552.293c-55.128 44.91-132.912 57.1-200.913 31.486-68.002-25.614-114.544-84.634-120.218-152.446-5.674-67.813 30.495-132.774 93.423-167.794-37.65-41.902-41.192-101.721-8.715-147.188 32.476-45.467 93.287-65.822 149.626-50.085 56.338 15.737 94.875 63.843 94.82 118.366 0 20.527-17.959 37.167-40.112 37.167-22.153 0-40.111-16.64-40.111-37.167 0-26.842-23.484-48.602-52.453-48.602-29.127 1.213-52.155 23.303-52.453 50.318 8.229 26.096 23.035 50.006 43.196 69.758 9.874 12.58 130.825 166.963 139.464 180.686 9.88-13.668 28.282-19.692 45.236-14.808 16.953 4.884 28.425 19.515 28.199 35.964-2.403 15.348-10.735 29.367-23.45 39.453l30.238 37.739c12.099 17.21 6.85 40.25-11.725 51.46-18.574 11.211-43.44 6.347-55.539-10.863l-18.513-23.444zM165.521 323.577v.572c-36.063 18.044-58.564 52.939-58.624 90.915-.225 42.053 26.598 80.19 68.21 96.981 41.61 16.79 90.016 9.008 123.09-19.79L165.52 323.577zM67.517 665h655.966C745.307 665 763 683.804 763 707s-17.693 42-39.517 42H67.517C45.693 749 28 730.196 28 707s17.693-42 39.517-42z" filter="url(#b)"/>
</svg>
