<svg xmlns="http://www.w3.org/2000/svg" width="16" height="16" viewBox="0 0 16 16">
    <path fill="#000" fill-rule="nonzero" d="M15 0a1 1 0 0 1 1 1v14a1 1 0 0 1-1.003.997l-4.341-.014c-.111 0-.196-.004-.255-.01a.922.922 0 0 1-.203-.053.287.287 0 0 1-.167-.15.67.67 0 0 1-.052-.287v-2.487c0-.673-.18-1.165-.54-1.477a7.12 7.12 0 0 0 1.066-.188c.315-.083.641-.218.978-.405a2.91 2.91 0 0 0 .843-.692c.225-.274.41-.639.551-1.093.142-.454.213-.976.213-1.566 0-.84-.274-1.554-.822-2.144.257-.631.23-1.338-.083-2.122-.194-.063-.475-.025-.843.114a5.598 5.598 0 0 0-.957.458l-.395.25A7.387 7.387 0 0 0 7.99 3.86c-.686 0-1.352.09-1.997.27a9.044 9.044 0 0 0-.443-.28 6.275 6.275 0 0 0-.869-.401c-.395-.156-.693-.203-.895-.14-.305.783-.329 1.49-.072 2.122-.548.59-.822 1.304-.822 2.144 0 .59.07 1.11.213 1.56.142.451.324.816.546 1.093a2.8 2.8 0 0 0 .838.697c.336.188.662.323.978.406.316.084.671.146 1.066.188-.277.25-.447.607-.51 1.072-.145.069-.301.121-.468.156a2.956 2.956 0 0 1-.593.052c-.229 0-.456-.075-.681-.224a1.834 1.834 0 0 1-.578-.65 1.68 1.68 0 0 0-.504-.541c-.205-.14-.377-.222-.516-.25l-.208-.031c-.145 0-.246.015-.301.046-.056.032-.073.072-.052.12.02.049.052.097.093.146.042.048.087.09.135.125l.073.052c.153.07.304.201.453.395a2.6 2.6 0 0 1 .328.53l.104.24c.09.264.243.477.458.64.215.163.447.267.697.312.25.045.49.07.723.073.232.004.425-.009.577-.036l.24-.042c0 .264.002.621.005 1.072l.005.708c0 .152-.038.268-.114.348a.403.403 0 0 1-.229.136c-.076.01-.19.015-.343.015l-4.325.014H1a1 1 0 0 1-1-1V1a1 1 0 0 1 1-1h14zM5.352 13.061c0 .065-.075.116-.168.116-.107.01-.18-.042-.18-.116 0-.064.073-.116.167-.116.097-.01.18.042.18.116zm-1.004-.145c.023-.064.117-.097.2-.074.097.029.158.103.14.168-.02.064-.117.096-.2.064-.098-.02-.162-.093-.14-.158zm1.426-.055c.094-.01.18.033.19.094.01.064-.054.126-.148.148-.097.023-.18-.02-.19-.084-.01-.074.055-.135.148-.158zm-2.639-1.235c.042-.042.117-.02.168.032.055.061.065.136.023.168-.042.042-.116.02-.168-.032-.055-.062-.064-.136-.023-.168zm-.348-.261c.023-.033.074-.042.139-.023.064.032.097.084.074.126-.023.045-.087.055-.139.022-.064-.032-.096-.084-.074-.125zm1.045 1.148c.042-.052.139-.042.21.032.064.061.084.158.042.2-.042.052-.136.042-.21-.032-.074-.061-.093-.158-.042-.2zm-.367-.474c.051-.042.135-.01.18.064.052.074.052.158 0 .2-.042.032-.129 0-.18-.074-.052-.074-.052-.158 0-.19z"/>
</svg>
